<?xml version="1.0" encoding="UTF-8"?>
<svg id="Layer_1" xmlns="http://www.w3.org/2000/svg" version="1.1" viewBox="0 0 1636.7 253.1">
  <!-- Generator: Adobe Illustrator 29.5.1, SVG Export Plug-In . SVG Version: 2.1.0 Build 141)  -->
  <path d="M186.9,75.8c-1.1,18.7-.8,57.2-.8,57.2,0,0-.2,30.4,0,39.6.2,9.2.4,23.7.9,27.4.6,3.6,2.4,16.6,13.1,17.9h1.8v2.9l-58.6.7v-2.9h1.2c1.5-.3,3.4-.9,4.8-1.5.4-.1.7-.3,1-.4,4.2-2.3,6.5-6.6,8.3-10.9.6-1.5,1.3-4.6,1.6-6.2.8-4.5.6-7.6.8-12.2.2-5.7.2-11.5.2-17.2,0-16.5-.2-36.9-.2-36.9h-88.4l.4,45.2s0,17.1.6,20.4c.6,3.2,1.6,15.4,15.1,19.7h2v2.9H28.6v-2.9s12.5-.2,16.2-15.4c3.6-15.3,2-34.8,2-38.4,0-6.7.4-44,.4-44v-21c0-6.8-.5-20-.5-25.6s-.1-23.4-3.1-32.3c-3-8.8-13.7-9.5-13.7-9.5h-.7v-2.9h61v2.9h-.8c-8.3,0-11.6,6.1-13.8,11.4-2.3,5.2-2.5,31.2-2.5,31.2-.5,18.7-.5,44.8-.5,44.8h88.6v-17.4c0-4.7.1-9.5.1-14.2-.1-6.2-.2-12.8-1.8-18.8-1-4.3-2.9-8.6-6.6-11.3-1.8-1.4-4.1-2.4-6.4-2.7h-1.8v-2.3h57.3v2.3h-2.5c-3.7,1.3-11.8,5.9-12.6,20.4Z"/>
  <path d="M863.3,185.1c-4.1,9.8-10.5,18.6-18.9,25.1-2.7,2.1-5.6,3.9-8.7,5.5-4.4,2.3-9.2,4-14,5.1-3.2.8-6.4,1.3-9.6,1.5-.6,0-1.3.1-2,.1-1.1.1-2.1.1-3.1.1-3.5.1-6.9-.2-10.4-.6-3.2-.4-6.3-1.1-9.5-1.9-3.8-1-7.7-1.8-11.7-2.3-1.9-.3-3.9-.5-5.9-.3-1.8.3-3.7.8-5.4,1.6-2,.9-4,2.1-5.8,3.5v1c-.1,0-3.2-.3-3.2-.3l6.5-58.3,3.1.3v.8c2.7,2.8,3.4,12.6,3.4,12.6.4-.1,6-1.9,6-1.9,7.3-2.6,13.8-1.9,18.1-.3,4.3,1.7,12.8,8.3,9.9,18.9-2.8,10.6-14,11.4-14,11.4,0,0,6.7,9,15.3,10.3,8.5,1.3,26.7,1.7,37.8-14.7,11.1-16.4,7.3-46.4-12.7-52.6-2.1-.6-3.9-1.1-5.6-1.5-5.5-1.6-15.6-2.1-15.6-2.1-18.7-.5-29.6-6-29.6-6-12.9-7.6-21.6-22.6-20-41.7,1.4-19.2,14.6-35.4,28.6-42.3,0,0,12.9-7.5,34.6-4.5,19.7,2.8,27.2,1.6,30.7.2l.4-1.4,3,1-14.4,45.5-2.9-1,.6-1.9h0c-.8-4.6-2.9-9.9-2.9-9.9-1.1-2.4-2.3-4.7-3.8-6.9-1.8-2.8-3.9-5.5-6.3-7.8-2-2-4.2-3.8-6.7-5.4-2-1.3-4.2-2.4-6.4-3.3-3.2-1.4-6.6-2.4-10.1-2.8-4.4-.4-8.8.4-12.7,2.3-2.8,1.4-5.4,3.3-7.5,5.6-2.2,2.4-3.9,5.1-5.1,8-1.2,3.1-1.8,6.4-1.8,9.6.1,16.2,11.4,24.6,25.3,25.7,3.1.3,6.2.6,9.3.9,5.4.5,10.9.7,16.3,1.4,10.7,1.6,20.7,5.7,28.5,13.4,7.6,7.6,13,17.2,13.9,28.1.8,11-.9,22-5,32.2Z"/>
  <path d="M715.4,52.9v3.1h2.4c11.5,3.9,13,21.2,13.8,26.9.9,5.8.9,7.6,1.3,14.2.4,6.6.2,30.8.2,34.5s.2,27,.2,27.6.1,2.9-.7,2.9-1.8-2-2.2-2.7c-.4-.7-3.3-5.6-7.8-13.1-4.5-7.5-26.3-44.1-30.1-50.8-3.9-6.7-22.9-40.6-22.9-40.6v-2.2h-75.6c0-.1-48.5-.1-48.5-.1v2.7c.3,0,.6.2.9.3.8.3,1.4.6,1.4.6,11.9,8.4,5.8,15.9,4.6,17.9-1.2,2.1-15,21.3-23.8,33.7-8.7,12.3-20.8,28.1-20.8,28.1,0,0,1.7-33,2.8-45.9,1.1-12.4,1.7-30.2,12.1-34.4h2.2v-3h-48.6v3h1.2s11.9,3.7,12.4,17.7c.4,14.1.4,24.3.3,35.1-.2,10.8-.5,47.2-.6,53.9-.1,6.7,0,18.3-.5,26-.5,7.6.6,21-13,30.3h-2.2v3.1h46.2v-3.1h-2.7c-9-5.6-9.8-14.7-10.2-18.8-.4-4.3-.6-16.2-.6-16.2-.3-14,.3-35.1.3-35.1,0,0,.1-3.9.8-5,0,0,6.7-8.6,8.4-9.5,0,0,10.5,7.2,15.2,15.9,4.7,8.7,13.2,25.4,14.7,28.7,1.6,3.3,4,8.1,6.2,12.7,2.3,4.6,5.4,12.3,5.6,19.9.2,7.6-.5,8-.6,8.1,0,.2-.8,2.4,2.3,2.4h107.8v-4.1h-.9c-.6-.2-1.3-.4-1.3-.4-10.1-2.2-12-14.8-13-35.9-1.1-21.2-.7-45.7-.7-45.7,0,0,0-45.2.1-49.7.1-4.5.2-8.3.2-8.3,0,0,9.9,16.8,12.3,20.7,2.3,3.8,20.4,34.9,27,45.9,6.7,11.1,30.3,51.6,32.7,55.9,2.5,4.3,8.9,15.1,10.4,17.7,1.5,2.6,2.4,4.1,3.7,4.1s1.1-3,1.1-5.4.1-44.7.1-50.9.1-55.9.2-65.3c.1-9.4.6-19.4,1.4-24.4,0,0,.8-11,6.1-16,2.7-2.6,4.9-3.6,6.4-3.9h1.2v-3.1h-38.9ZM590.8,210.3c-1.9,0-3.9-3.5-4.7-4.9-.7-1.4-7-13.8-9.2-18.5-2.3-4.7-16.7-33.5-27.8-53.8-9.1-16.6-18-16.2-20.9-15.5,0,0,17.7-24.2,20.6-28.2,3-4,17.4-21.4,21.8-25.3,4.5-3.9,8.7-6.5,15.5-6.5s9.5,12.3,9.5,20.9.3,50.9.3,58.1.2,53.4.2,60.9-3.4,12.8-5.3,12.8ZM645.9,179.3c-.4,7.2-.9,18.9-5.3,29.7-1.9,4.8-5.4,7.6-8.6,9.2-10.4-3.8-10.2-27.9-10.4-37.3-.3-9.6-.1-56.6-.1-65.6s-.1-35.6-.1-35.6c0,0,0-7.1,1.2-11.5,1.1-3.7,3.2-9,7.6-11.2,1.5-.8,3.2-1,4.7-.3,4.7,2.2,8.3,9.4,9,12,.9,3.1,2.2,7.9,2.2,20.2s-.1,37,0,45.7c0,8.7,0,19.9,0,28.8,0,0,.1,8.7-.3,15.9Z"/>
  <path d="M1193.6,219.3c-1.2,0-17-.2-25.1-7.9-8.1-7.6-12.4-12.4-18.4-22.3-6.1-9.9-12-21.3-18.5-30-5.3-7.2-9.5-12.9-11-15.1,1.8.1,3.6.1,5.3-.1,6.4-.4,12.4-3.1,17.8-6.5,6.8-4.2,13-9.5,18.2-15.7,5.1-6.1,9.2-13.3,10.8-21.2,1.1-5.2,1.2-10.7.7-15.9-.7-7.5-3-14.9-7.5-20.9-3.9-5.1-9.2-8.9-15.2-11.1-3-1.1-6.1-1.9-9.3-2.2-5-.6-10.4-.7-15.3.6-3.8,1-7.4,2.8-10.7,5-7.9,5.4-14.3,13.1-19.2,21.2v-24.1h-41.8v3.1h5.1c4.6,3.4,8.7,7.7,10.2,13.4,1.1,4.4.9,8.9,1,13.4,0,0,.5,31.3.5,40.6s0,45.3-.3,55.2c-.2,9.8-.3,10.6-.6,15.3-.2,4.7.1,16.8-12.6,23.6h-3v4h53.2v-4h-1.9c-10.3-4.8-10.5-14.7-10.7-19.1-.2-4.5-.4-17.6-.6-28.5-.2-10.8-.3-23.5-.3-23.5,0,0,6.7-.2,9.3,0,2.7.1,7.1-1,13,9.1,6,10.1,8.9,15.5,12.6,26.7,3.8,11.2,6,17.2,6.7,22.2.7,5,1,11.4,1.1,13.7,0,2.2.2,3.4,3.3,3.4s31.5.3,40.3.2c8.8,0,13.9-.2,14.1-.3.1,0,.5-.3.5-1s-.5-1.3-1.7-1.3ZM1115.8,138.2c-2.3-1.3-4.3-3.2-6.1-5.3-1.1-1.2-2.2-2.4-3.4-3.5-1-.9-1.8-1.5-3.1-1.6h-1.2v9.9h-8.2c0-.8.5-10,.6-14.3.1-4.3.1-20.4.1-20.4,0-2.1,0-6.2.3-8.3.8-4.4,2.2-8.7,4.3-12.6,1.9-3.7,4.3-7.1,7.1-10.1,2.4-2.6,5.2-5,8.2-6.9,3-2,6.6-3.4,10.2-3.5,3.4-.1,6.6,1.3,9.3,3.3,3.2,2.4,5.9,5.6,8,9.1.5.8.9,1.6,1.4,2.4,4,7.5,6.1,16.2,5.7,24.6-.1,2.4-.4,4.8-.8,7.2-.5,3.7-1.4,7.4-2.7,10.9-1.1,3.3-2.6,6.4-4.4,9.4-1.6,2.6-3.5,5-5.8,7-2,1.8-4.4,3.2-7,4-1.2.4-2.5.6-3.8.7-.9,0-1.8,0-2.7-.1-1,0-2-.2-2.9-.5-1.1-.3-2.1-.8-3.1-1.4Z"/>
  <path d="M362.4,122.7c-.8-8-2.7-15.8-5.6-23.2-3-7.4-6.9-14.4-11.8-20.6-4.9-6.3-10.8-11.8-17.3-16.3-6.7-4.6-14.2-8-22-10.2-8.6-2.3-17.1-2.7-25.9-2.4-45.4,1.3-80.1,39.3-82.7,87.1-3.2,50.1,36.3,90.4,82.7,87.4,1.7-.1,3.4-.2,5.1-.5,8.6-1.1,16.8-3.8,24.6-7.6,8.1-3.9,15.6-9.1,22.4-15.1,6.9-6.1,12.9-13.2,17.9-20.9,5.2-8.3,9.3-17.5,11.2-27.1,1-5.5,1.5-11.1,1.6-16.7.1-4.7.2-9.3-.2-13.9ZM335.9,158.5c-.6,8-2,15.9-4.6,23.5-2.4,6.9-5.7,13.6-10.4,19.2-4.3,5.3-9.9,9.5-16.3,11.8-.7.2-1.5.5-2.3.7-32.6,8-66.6-20.9-75.6-61.5-2.6-11.5-3.3-23.4-2.5-35.1.4-5.8,1.3-11.6,2.6-17.2,1.8-7.8,4.5-15.4,8.5-22.2,3.5-6,8.1-11.5,14-15.2,7.5-4.6,16.8-5.6,25.5-4.6,7.7.9,15.2,3.7,21.7,7.9,7,4.4,13,10.2,18,16.7,5.5,6.9,9.8,14.7,13.1,22.9,2,5,3.7,10.2,5,15.6,1.1,4.2,1.9,8.5,2.5,12.7,1.2,8.2,1.5,16.5.8,24.8Z"/>
  <path d="M481.3,98.3c-1.8,25.8-21.6,43.2-42.6,48.7,0,0-17.2,3.7-35.5.4h-.7l2.2-22.6h1.3v1.1c4.4,9.8,11.7,16.2,21.1,17.3,15.4,2.1,29.1-19,28.3-40.7.3-22.2-11.9-41.5-28.3-40.7-11.6,1.6-20.4,8.6-28.2,32,0,.2,0,.3,0,.5v57.6c-.1,0,0,25.6,0,34s-.1,9.4.4,14.4c.5,4.9.7,13.4,11.8,18.3h1v3.1h-54.1v-3.1h1.8c13.8-6.7,12.9-20.7,13.3-26.9.3-6.1,1-21.7,1.1-29.4.2-7.7.2-19.8.2-30s-.5-49.6-.5-49.6c-.1-5.2-.4-10-1.3-13.5-3.4-12.6-12-13-13.2-13h-1.4v-3.1h41.7v3.1l.2,23c7.3-16.3,24.1-28.9,38.9-29.5,22.5-1,43.9,15.1,42.6,48.6Z"/>
  <path d="M1038.5,199.2c9-8.8,14.7-25.7,15.3-27,.5-1.3.9-2.2.9-3.4,0-1.2,1.2-1.6,2-2.1.8-.5,1.4.8,2,1.7.7.9,0,1.5,0,1.5,0,0-.9,2.2-1.6,4s-6.1,17.4-9.4,26.4c-3.3,8.9-4.5,14.7-4.5,14.7-19.3,10.4-42.1,10.3-42.1,10.3-30.8.8-52.7-12-69.3-34.6-12.1-16.5-19.1-38.3-17.3-63.9,0-.2,0-.3,0-.5,0-6.5.8-13,2-19.3,1.2-6.4,3-12.6,5.4-18.6,2.3-6,5.1-11.8,8.4-17.3,3.2-5.4,7-10.5,11.2-15.2,4.1-4.6,8.7-8.8,13.7-12.5,4.9-3.6,10.2-6.7,15.9-9.1,5.7-2.4,11.7-4.2,17.8-5.1,6.1-.9,12.3-1,18.4-.4,8.9.9,17.3,3.8,25.7,6.5,11.5,3.7,16.2-3.3,16.9-4s2.5-2.5,3.8-1.5c1.3,1,.2,4.2-.2,5.6-.4,1.4-2.7,8.2-4.3,14.2-1.5,6-4.6,22.7-4.6,22.7-.9,5.1-.7,10.9-4.9,14.6-4.7,4-13.1,3.1-17-1.5-2.4-2.8-3.4-7.3-2.4-10.9.7-2.7,2.3-5,3.8-7.3,2-3.3,3.3-6.6,2.4-10.5-.7-2.9-3-5.1-4.8-7.4-5.5-7-15-12.5-24.1-12.9-28.2-1-52.6,26.1-52.5,88.1.3,9.9,1.5,19.7,3.9,29.3,2.1,8.7,5.2,17.2,9.4,25.2,3.7,7.1,8.4,13.8,14.1,19.4,5.2,5.1,11.3,9.4,18.1,12,7.8,3.1,16,4.1,24.2,2.3,9.1-1.9,17.2-6.9,23.8-13.3Z"/>
  <path d="M1294.5,170.7c-.6.4-1.3.9-1.8,1.4s-.5.7-.7,1.1c-.3.6-.6,1.2-.9,1.9-3.4,6.7-11.9,17.2-11.9,17.2-1.2,1.4-2.5,2.7-4,3.9-9,7.7-21.1,10-32.7,9.3-15.9-.9-28.8-9.9-39.3-21.3-1-1.1-2-2.2-2.9-3.3-7-8.2-12.5-17.6-15.7-27.9-3.7-12.3-4.3-25.5-3.4-38.3v-.4c3.7-.1,16.9-.3,25.5-.3s7.4-.2,11.2-.2,8.3.2,12.4,1c3.6.8,7.3,2.1,9.9,4.8,3.1,3.1,5.5,6.8,7.5,10.6,0,0,2.2,4.2,3.4,6.7,1.3,2.4,2.7,5.7,4.8,5.7s2.3-1.1,2.8-2.3c1-2.5,1.3-5.2,2.6-7.6.4-.7.8-1.5,1.4-2,.8-.6,1.6-.8,2.5-.8,2.2,0,12.1-1.4,19.5-6.6,0,0,7.3-4.2,10.5-9.8,3.2-5.7.7-9.8-1-11.9-1.8-2.1-4.6-4.7-5.3-5.3-.7-.6-1.8-1.4-2.8.4-.6,1.2-.9,2.5-1.3,3.7-.5,1.2-1.5,2.1-2.5,2.7-2.2,1.1-4,2.2-12,1.9,0,0-2.2,0-8-.4-4.3-.3-7.1-1.4-8.2-2,.4-.7,1-1.3,1.5-2,1.9-2.6,12.6-17.6,15.7-22.1,3.1-4.4,17.1-25.5,17.1-25.5,0,0-18.2,2.1-30.9,0-12.6-2.1-23.8-1.1-23.8-1.1-38.3,3.4-66.4,35.7-69.2,86.6-.3,4.9-.3,9.8.1,14.7.3,4.7.9,9.4,1.8,14.1.9,4.5,2.2,9,3.7,13.3,1.5,4.2,3.4,8.2,5.6,12.1,2.1,3.7,4.5,7.3,7.3,10.6,2.7,3.2,5.7,6.2,9,8.8,3.4,2.7,7,5,10.9,6.8,4,2,8.2,3.4,12.5,4.5,4.7,1.1,9.5,1.7,14.3,1.6,3.3-.1,6.7-.4,10-1,4.4-.7,8.8-1.9,12.9-3.5,4.9-1.8,9.6-4.3,13.9-7.5,1.9-1.4,3.7-2.9,5.4-4.5,0,0,17.7-16.2,22.8-32.2,0,0,1.1-3.8,1-5.8,0-.6-1,0-1.2.2ZM1191.3,80.8c4.9-7.7,12-13.8,20.5-17.3.9-.3,1.9-.7,2.9-1,0,0,20.8-6.6,33.6,7.6.1.1.2.2.2.3.9,1,1.6,2,2.3,3.1,2.5,3.8,4,8.3,4,12.9s-.2,4.1-1,6c-.7,1.4-1.6,2.6-2.5,3.8-2.6,4.1-8.2,8.9-8.2,8.9h-60.8c1.5-8.5,4.3-16.9,9-24.3Z"/>
  <path d="M1427,170.7c-.6.4-1.3.9-1.8,1.4-.3.3-.5.7-.7,1.1-.3.6-.6,1.2-.9,1.9-3.4,6.7-11.9,17.2-11.9,17.2-1.2,1.4-2.5,2.7-4,3.9-9,7.7-21.1,10-32.7,9.3-15.9-.9-28.8-9.9-39.3-21.3-1-1.1-2-2.2-2.9-3.3-7-8.2-12.5-17.6-15.7-27.9-3.7-12.3-4.3-25.5-3.4-38.3v-.4c3.7-.1,16.9-.3,25.5-.3s7.4-.2,11.2-.2,8.3.2,12.4,1c3.6.8,7.3,2.1,9.9,4.8,3.1,3.1,5.5,6.8,7.5,10.6,0,0,2.2,4.2,3.4,6.7,1.3,2.4,2.7,5.7,4.8,5.7s2.3-1.1,2.8-2.3c1-2.5,1.3-5.2,2.6-7.6.4-.7.8-1.5,1.4-2,.8-.6,1.6-.8,2.5-.8,2.2,0,12.1-1.4,19.5-6.6,0,0,7.3-4.2,10.5-9.8,3.2-5.7.7-9.8-1-11.9-1.8-2.1-4.6-4.7-5.3-5.3-.7-.6-1.8-1.4-2.8.4-.6,1.2-.9,2.5-1.3,3.7-.5,1.2-1.5,2.1-2.5,2.7-2.2,1.1-4,2.2-12,1.9,0,0-2.2,0-8-.4-4.3-.3-7.1-1.4-8.2-2,.4-.7,1-1.3,1.5-2,1.9-2.6,12.6-17.6,15.7-22.1,3.1-4.4,17.1-25.5,17.1-25.5,0,0-18.2,2.1-30.9,0-12.6-2.1-23.8-1.1-23.8-1.1-38.3,3.4-66.4,35.7-69.2,86.6-.3,4.9-.3,9.8.1,14.7.3,4.7.9,9.4,1.8,14.1.9,4.5,2.2,9,3.7,13.3,1.5,4.2,3.4,8.2,5.6,12.1,2.1,3.7,4.5,7.3,7.3,10.6,2.7,3.2,5.7,6.2,9,8.8,3.4,2.7,7,5,10.9,6.8,4,2,8.2,3.4,12.5,4.5,4.7,1.1,9.5,1.7,14.3,1.6,3.3-.1,6.7-.4,10-1,4.4-.7,8.8-1.9,12.9-3.5,4.9-1.8,9.6-4.3,13.9-7.5,1.9-1.4,3.7-2.9,5.4-4.5,0,0,17.7-16.2,22.8-32.2,0,0,1.1-3.8,1-5.8,0-.6-1,0-1.2.2ZM1323.8,80.8c4.9-7.7,12-13.8,20.5-17.3.9-.3,1.9-.7,2.9-1,0,0,20.8-6.6,33.6,7.6.1.1.2.2.2.3.9,1,1.6,2,2.3,3.1,2.5,3.8,4,8.3,4,12.9s-.2,4.1-1,6c-.7,1.4-1.6,2.6-2.5,3.8-2.6,4.1-8.2,8.9-8.2,8.9h-60.8c1.5-8.5,4.3-16.9,9-24.3Z"/>
  <path d="M1608.1,210.9v11h-86.9c0-13.3-6-24.7-8.7-29.8-2.8-5-16.2-30-26.7-45.2-10.5-15.2-19.9-14.5-19.9-14.5l-9.3,10.7s-.8,28.1-.8,34.5-1.5,24.8,1.7,32.7c1.7,4.2,4.6,6.5,6.9,7.7h6.8v3.5h-48.5v-3.5h5.2c10.1-7.8,9.7-20.7,10-25.3.2-4.7,1.1-23.4,1.4-34.5.2-11.1-.2-38.4-.2-43.6s0-31.6-.9-44.4c-.9-12.9-10.3-14.2-10.3-14.2h-2.1v-3.6h48.5v3.6h-2.3c-2.6,1.1-7.7,3.9-8.8,9-1.6,6.9-3.9,27.3-4.5,38.1-.6,10.7-1.8,32.2-1.8,32.2,0,0,20.5-30.8,24-35.4,3.4-4.6,13.1-18.4,16.3-22.8,3.2-4.4,10.7-12.4,2.9-18.1-1.6-1.2-3.2-2.2-4.7-3h-3.7v-3.6h45.9v3.6h-.9l-1,.5s-15.2,5-23.5,13.5c-8.4,8.5-18.9,22.5-24.1,29.3-4.7,6.2-17.9,24.7-19.9,27.6,1.7-1.5,7.9-6.8,15.8-9.3,9-2.7,16.8,8.9,24.5,19.3,7.6,10.4,21.8,37.3,32,52.6,10.1,15.2,15.5,18.9,23.7,23.5,8.3,4.6,16.2,4.9,19.1,4.9,2.9.1,7.7,0,7.7,0,12.2,0,13.8-7,13.8-7h3.3Z"/>
</svg>